{"title":"Lock, Stock and Two Smoking Barrels [1998] BRrip [Ac3-5.1]{Multi","uid":6326901,"size":1455153890,"categoryP":"video","categoryS":"movies","magnet":"?xt=urn:btih:5d168c5c4bc9d63e8e6312eb819e8ece36ded537&amp;dn=Lock%2C+Stock+and+Two+Smoking+Barrels+%5B1998%5D+BRrip+%5BAc3-5.1%5D%7BMulti&amp;tr=udp%3A%2F%2Ftracker.openbittorrent.com%3A80&amp;tr=udp%3A%2F%2Fopen.demonii.com%3A1337&amp;tr=udp%3A%2F%2Ftracker.coppersurfer.tk%3A6969&amp;tr=udp%3A%2F%2Fexodus.desync.com%3A6969","seeders":2,"leechers":0,"uploader":"rhythmtheguru","files":10,"time":1303142656,"description":"Screen Shot Link                 :\n\nGeneral\nComplete name                    : Lock, Stock and Two Smoking Barrels [1998] BRrip [Ac3-5.1]{Multisubs} -=[CaLvIn]=-.avi\nImdb Link                        : http://www.imdb.com/title/tt0120735/\nFormat                           : AVI\nFormat/Info                      : Audio Video Interleave\nFile size                        : 1.35 GiB\nDuration                         : 1h 47mn\nOverall bit rate                 : 1 797 Kbps\nWriting application              : VirtualDubMod 1.5.10.3 | www.virtualdub-fr.org || (build 2550/release)\nWriting library                  : VirtualDubMod build 2550/release\n\nVideo\nID                               : 0\nFormat                           : MPEG-4 Visual\nFormat profile                   : Advanced Simple@L5\nFormat settings, BVOP            : 2\nFormat settings, QPel            : No\nFormat settings, GMC             : No warppoints\nFormat settings, Matrix          : Default (MPEG)\nCodec ID                         : XVID\nCodec ID/Hint                    : XviD\nDuration                         : 1h 47mn\nBit rate                         : 1 147 Kbps\nWidth                            : 704 pixels\nHeight                           : 576 pixels\nDisplay aspect ratio             : 16:9\nFrame rate                       : 25.000 fps\nStandard                         : PAL\nColor space                      : YUV\nChroma subsampling               : 4:2:0\nBit depth                        : 8 bits\nScan type                        : Progressive\nCompression mode                 : Lossy\nBits/(Pixel*Frame)               : 0.113\nStream size                      : 881 MiB (64%)\nWriting library                  : XviD 1.1.2 (UTC 2006-11-01)\n\nAudio\nID                               : 1\nFormat                           : AC-3\nFormat/Info                      : Audio Coding 3\nMode extension                   : CM (complete main)\nCodec ID                         : 2000\nDuration                         : 1h 47mn\nBit rate mode                    : Constant\nBit rate                         : 640 Kbps\nChannel(s)                       : 6 channels\nChannel positions                : Front: L C R, Side: L R, LFE\nSampling rate                    : 48.0 KHz\nBit depth                        : 16 bits\nCompression mode                 : Lossy\nStream size                      : 492 MiB (36%)\nAlignment                        : Split accross interleaves\nInterleave, duration             : 40 ms (1.00 video frame)\nInterleave, preload duration     : 500 ms\n\n","torrent":{"xt":"urn:btih:5d168c5c4bc9d63e8e6312eb819e8ece36ded537","amp;dn":"Lock%2C+Stock+and+Two+Smoking+Barrels+%5B1998%5D+BRrip+%5BAc3-5.1%5D%7BMulti","amp;tr":["udp%3A%2F%2Ftracker.openbittorrent.com%3A80","udp%3A%2F%2Fopen.demonii.com%3A1337","udp%3A%2F%2Ftracker.coppersurfer.tk%3A6969","udp%3A%2F%2Fexodus.desync.com%3A6969"],"infoHash":"5d168c5c4bc9d63e8e6312eb819e8ece36ded537","infoHashBuffer":{"type":"Buffer","data":[93,22,140,92,75,201,214,62,142,99,18,235,129,158,142,206,54,222,213,55]},"announce":[],"urlList":[]}}